ISO-10303-21;
HEADER;
/* Generated by software containing ST-Developer
 * from STEP Tools, Inc. (www.steptools.com) 
 */

FILE_DESCRIPTION(
/* description */ (''),
/* implementation_level */ '2;1');

FILE_NAME(
/* name */ 'obd.step',
/* time_stamp */ '2026-04-13T15:00:32+05:30',
/* author */ (''),
/* organization */ (''),
/* preprocessor_version */ 'ST-DEVELOPER v20.1',
/* originating_system */ 'Autodesk Translation Framework v14.24.0.0',
/* authorisation */ '');

FILE_SCHEMA (('AUTOMOTIVE_DESIGN { 1 0 10303 214 3 1 1 }'));
ENDSEC;

DATA;
#10=MECHANICAL_DESIGN_GEOMETRIC_PRESENTATION_REPRESENTATION('',(#13),#624);
#11=SHAPE_REPRESENTATION_RELATIONSHIP('SRR','None',#631,#12);
#12=ADVANCED_BREP_SHAPE_REPRESENTATION('',(#14),#623);
#13=STYLED_ITEM('',(#640),#14);
#14=MANIFOLD_SOLID_BREP('Body7',#384);
#15=FACE_BOUND('',#73,.T.);
#16=PLANE('',#401);
#17=PLANE('',#402);
#18=PLANE('',#403);
#19=PLANE('',#404);
#20=PLANE('',#405);
#21=PLANE('',#406);
#22=PLANE('',#407);
#23=PLANE('',#408);
#24=PLANE('',#409);
#25=PLANE('',#410);
#26=PLANE('',#411);
#27=PLANE('',#412);
#28=PLANE('',#413);
#29=PLANE('',#414);
#30=PLANE('',#415);
#31=PLANE('',#416);
#32=PLANE('',#417);
#33=PLANE('',#418);
#34=PLANE('',#419);
#35=FACE_OUTER_BOUND('',#55,.T.);
#36=FACE_OUTER_BOUND('',#56,.T.);
#37=FACE_OUTER_BOUND('',#57,.T.);
#38=FACE_OUTER_BOUND('',#58,.T.);
#39=FACE_OUTER_BOUND('',#59,.T.);
#40=FACE_OUTER_BOUND('',#60,.T.);
#41=FACE_OUTER_BOUND('',#61,.T.);
#42=FACE_OUTER_BOUND('',#62,.T.);
#43=FACE_OUTER_BOUND('',#63,.T.);
#44=FACE_OUTER_BOUND('',#64,.T.);
#45=FACE_OUTER_BOUND('',#65,.T.);
#46=FACE_OUTER_BOUND('',#66,.T.);
#47=FACE_OUTER_BOUND('',#67,.T.);
#48=FACE_OUTER_BOUND('',#68,.T.);
#49=FACE_OUTER_BOUND('',#69,.T.);
#50=FACE_OUTER_BOUND('',#70,.T.);
#51=FACE_OUTER_BOUND('',#71,.T.);
#52=FACE_OUTER_BOUND('',#72,.T.);
#53=FACE_OUTER_BOUND('',#74,.T.);
#54=FACE_OUTER_BOUND('',#75,.T.);
#55=EDGE_LOOP('',(#261,#262,#263,#264));
#56=EDGE_LOOP('',(#265,#266,#267,#268));
#57=EDGE_LOOP('',(#269,#270,#271,#272,#273,#274,#275,#276));
#58=EDGE_LOOP('',(#277,#278,#279,#280));
#59=EDGE_LOOP('',(#281,#282,#283,#284,#285));
#60=EDGE_LOOP('',(#286,#287,#288,#289,#290));
#61=EDGE_LOOP('',(#291,#292,#293,#294));
#62=EDGE_LOOP('',(#295,#296,#297,#298));
#63=EDGE_LOOP('',(#299,#300,#301,#302));
#64=EDGE_LOOP('',(#303,#304,#305,#306));
#65=EDGE_LOOP('',(#307,#308,#309,#310,#311,#312,#313,#314));
#66=EDGE_LOOP('',(#315,#316,#317,#318));
#67=EDGE_LOOP('',(#319,#320,#321,#322));
#68=EDGE_LOOP('',(#323,#324,#325,#326));
#69=EDGE_LOOP('',(#327,#328,#329,#330));
#70=EDGE_LOOP('',(#331,#332,#333,#334));
#71=EDGE_LOOP('',(#335,#336,#337,#338));
#72=EDGE_LOOP('',(#339,#340,#341,#342,#343,#344,#345,#346));
#73=EDGE_LOOP('',(#347,#348,#349,#350,#351,#352,#353,#354));
#74=EDGE_LOOP('',(#355,#356,#357,#358));
#75=EDGE_LOOP('',(#359,#360,#361,#362));
#76=LINE('',#521,#125);
#77=LINE('',#524,#126);
#78=LINE('',#527,#127);
#79=LINE('',#529,#128);
#80=LINE('',#530,#129);
#81=LINE('',#534,#130);
#82=LINE('',#536,#131);
#83=LINE('',#537,#132);
#84=LINE('',#539,#133);
#85=LINE('',#541,#134);
#86=LINE('',#543,#135);
#87=LINE('',#544,#136);
#88=LINE('',#547,#137);
#89=LINE('',#549,#138);
#90=LINE('',#550,#139);
#91=LINE('',#553,#140);
#92=LINE('',#554,#141);
#93=LINE('',#556,#142);
#94=LINE('',#559,#143);
#95=LINE('',#560,#144);
#96=LINE('',#563,#145);
#97=LINE('',#565,#146);
#98=LINE('',#566,#147);
#99=LINE('',#568,#148);
#100=LINE('',#570,#149);
#101=LINE('',#574,#150);
#102=LINE('',#576,#151);
#103=LINE('',#578,#152);
#104=LINE('',#580,#153);
#105=LINE('',#582,#154);
#106=LINE('',#584,#155);
#107=LINE('',#586,#156);
#108=LINE('',#587,#157);
#109=LINE('',#590,#158);
#110=LINE('',#592,#159);
#111=LINE('',#593,#160);
#112=LINE('',#596,#161);
#113=LINE('',#598,#162);
#114=LINE('',#599,#163);
#115=LINE('',#602,#164);
#116=LINE('',#603,#165);
#117=LINE('',#605,#166);
#118=LINE('',#608,#167);
#119=LINE('',#609,#168);
#120=LINE('',#612,#169);
#121=LINE('',#614,#170);
#122=LINE('',#615,#171);
#123=LINE('',#617,#172);
#124=LINE('',#618,#173);
#125=VECTOR('',#426,10.);
#126=VECTOR('',#429,10.);
#127=VECTOR('',#432,10.);
#128=VECTOR('',#433,10.);
#129=VECTOR('',#434,10.);
#130=VECTOR('',#437,10.);
#131=VECTOR('',#438,10.);
#132=VECTOR('',#439,10.);
#133=VECTOR('',#440,10.);
#134=VECTOR('',#441,10.);
#135=VECTOR('',#442,10.);
#136=VECTOR('',#443,10.);
#137=VECTOR('',#446,10.);
#138=VECTOR('',#447,10.);
#139=VECTOR('',#448,10.);
#140=VECTOR('',#451,10.);
#141=VECTOR('',#452,10.);
#142=VECTOR('',#455,10.);
#143=VECTOR('',#458,10.);
#144=VECTOR('',#459,10.);
#145=VECTOR('',#462,10.);
#146=VECTOR('',#463,10.);
#147=VECTOR('',#464,10.);
#148=VECTOR('',#467,10.);
#149=VECTOR('',#470,10.);
#150=VECTOR('',#473,10.);
#151=VECTOR('',#474,10.);
#152=VECTOR('',#475,10.);
#153=VECTOR('',#476,10.);
#154=VECTOR('',#477,10.);
#155=VECTOR('',#478,10.);
#156=VECTOR('',#479,10.);
#157=VECTOR('',#480,10.);
#158=VECTOR('',#483,10.);
#159=VECTOR('',#484,10.);
#160=VECTOR('',#485,10.);
#161=VECTOR('',#488,10.);
#162=VECTOR('',#489,10.);
#163=VECTOR('',#490,10.);
#164=VECTOR('',#493,10.);
#165=VECTOR('',#494,10.);
#166=VECTOR('',#497,10.);
#167=VECTOR('',#500,10.);
#168=VECTOR('',#501,10.);
#169=VECTOR('',#504,10.);
#170=VECTOR('',#505,10.);
#171=VECTOR('',#506,10.);
#172=VECTOR('',#509,10.);
#173=VECTOR('',#510,10.);
#174=ELLIPSE('',#399,0.664144020987064,0.5);
#175=ELLIPSE('',#400,0.673370526362316,0.5);
#176=VERTEX_POINT('',#517);
#177=VERTEX_POINT('',#518);
#178=VERTEX_POINT('',#520);
#179=VERTEX_POINT('',#522);
#180=VERTEX_POINT('',#526);
#181=VERTEX_POINT('',#528);
#182=VERTEX_POINT('',#532);
#183=VERTEX_POINT('',#533);
#184=VERTEX_POINT('',#535);
#185=VERTEX_POINT('',#538);
#186=VERTEX_POINT('',#540);
#187=VERTEX_POINT('',#542);
#188=VERTEX_POINT('',#546);
#189=VERTEX_POINT('',#548);
#190=VERTEX_POINT('',#552);
#191=VERTEX_POINT('',#558);
#192=VERTEX_POINT('',#562);
#193=VERTEX_POINT('',#564);
#194=VERTEX_POINT('',#572);
#195=VERTEX_POINT('',#573);
#196=VERTEX_POINT('',#575);
#197=VERTEX_POINT('',#577);
#198=VERTEX_POINT('',#579);
#199=VERTEX_POINT('',#581);
#200=VERTEX_POINT('',#583);
#201=VERTEX_POINT('',#585);
#202=VERTEX_POINT('',#589);
#203=VERTEX_POINT('',#591);
#204=VERTEX_POINT('',#595);
#205=VERTEX_POINT('',#597);
#206=VERTEX_POINT('',#601);
#207=VERTEX_POINT('',#607);
#208=VERTEX_POINT('',#611);
#209=VERTEX_POINT('',#613);
#210=EDGE_CURVE('',#176,#177,#174,.F.);
#211=EDGE_CURVE('',#177,#178,#76,.T.);
#212=EDGE_CURVE('',#178,#179,#175,.F.);
#213=EDGE_CURVE('',#179,#176,#77,.T.);
#214=EDGE_CURVE('',#180,#177,#78,.T.);
#215=EDGE_CURVE('',#181,#180,#79,.F.);
#216=EDGE_CURVE('',#181,#178,#80,.F.);
#217=EDGE_CURVE('',#182,#183,#81,.F.);
#218=EDGE_CURVE('',#182,#184,#82,.T.);
#219=EDGE_CURVE('',#181,#184,#83,.F.);
#220=EDGE_CURVE('',#185,#180,#84,.F.);
#221=EDGE_CURVE('',#185,#186,#85,.T.);
#222=EDGE_CURVE('',#187,#186,#86,.F.);
#223=EDGE_CURVE('',#187,#183,#87,.F.);
#224=EDGE_CURVE('',#182,#188,#88,.F.);
#225=EDGE_CURVE('',#189,#188,#89,.T.);
#226=EDGE_CURVE('',#184,#189,#90,.T.);
#227=EDGE_CURVE('',#190,#176,#91,.T.);
#228=EDGE_CURVE('',#185,#190,#92,.T.);
#229=EDGE_CURVE('',#179,#189,#93,.T.);
#230=EDGE_CURVE('',#183,#191,#94,.T.);
#231=EDGE_CURVE('',#188,#191,#95,.T.);
#232=EDGE_CURVE('',#186,#192,#96,.F.);
#233=EDGE_CURVE('',#193,#192,#97,.T.);
#234=EDGE_CURVE('',#187,#193,#98,.F.);
#235=EDGE_CURVE('',#191,#193,#99,.T.);
#236=EDGE_CURVE('',#192,#190,#100,.T.);
#237=EDGE_CURVE('',#194,#195,#101,.T.);
#238=EDGE_CURVE('',#196,#195,#102,.T.);
#239=EDGE_CURVE('',#196,#197,#103,.T.);
#240=EDGE_CURVE('',#198,#197,#104,.T.);
#241=EDGE_CURVE('',#198,#199,#105,.T.);
#242=EDGE_CURVE('',#200,#199,#106,.T.);
#243=EDGE_CURVE('',#200,#201,#107,.T.);
#244=EDGE_CURVE('',#194,#201,#108,.T.);
#245=EDGE_CURVE('',#201,#202,#109,.T.);
#246=EDGE_CURVE('',#203,#202,#110,.T.);
#247=EDGE_CURVE('',#194,#203,#111,.T.);
#248=EDGE_CURVE('',#199,#204,#112,.T.);
#249=EDGE_CURVE('',#205,#204,#113,.T.);
#250=EDGE_CURVE('',#200,#205,#114,.T.);
#251=EDGE_CURVE('',#198,#206,#115,.T.);
#252=EDGE_CURVE('',#204,#206,#116,.T.);
#253=EDGE_CURVE('',#202,#205,#117,.T.);
#254=EDGE_CURVE('',#207,#203,#118,.T.);
#255=EDGE_CURVE('',#195,#207,#119,.T.);
#256=EDGE_CURVE('',#196,#208,#120,.T.);
#257=EDGE_CURVE('',#209,#208,#121,.T.);
#258=EDGE_CURVE('',#197,#209,#122,.T.);
#259=EDGE_CURVE('',#208,#207,#123,.T.);
#260=EDGE_CURVE('',#206,#209,#124,.T.);
#261=ORIENTED_EDGE('',*,*,#210,.T.);
#262=ORIENTED_EDGE('',*,*,#211,.T.);
#263=ORIENTED_EDGE('',*,*,#212,.T.);
#264=ORIENTED_EDGE('',*,*,#213,.T.);
#265=ORIENTED_EDGE('',*,*,#211,.F.);
#266=ORIENTED_EDGE('',*,*,#214,.F.);
#267=ORIENTED_EDGE('',*,*,#215,.F.);
#268=ORIENTED_EDGE('',*,*,#216,.T.);
#269=ORIENTED_EDGE('',*,*,#217,.F.);
#270=ORIENTED_EDGE('',*,*,#218,.T.);
#271=ORIENTED_EDGE('',*,*,#219,.F.);
#272=ORIENTED_EDGE('',*,*,#215,.T.);
#273=ORIENTED_EDGE('',*,*,#220,.F.);
#274=ORIENTED_EDGE('',*,*,#221,.T.);
#275=ORIENTED_EDGE('',*,*,#222,.F.);
#276=ORIENTED_EDGE('',*,*,#223,.T.);
#277=ORIENTED_EDGE('',*,*,#218,.F.);
#278=ORIENTED_EDGE('',*,*,#224,.T.);
#279=ORIENTED_EDGE('',*,*,#225,.F.);
#280=ORIENTED_EDGE('',*,*,#226,.F.);
#281=ORIENTED_EDGE('',*,*,#220,.T.);
#282=ORIENTED_EDGE('',*,*,#214,.T.);
#283=ORIENTED_EDGE('',*,*,#210,.F.);
#284=ORIENTED_EDGE('',*,*,#227,.F.);
#285=ORIENTED_EDGE('',*,*,#228,.F.);
#286=ORIENTED_EDGE('',*,*,#219,.T.);
#287=ORIENTED_EDGE('',*,*,#226,.T.);
#288=ORIENTED_EDGE('',*,*,#229,.F.);
#289=ORIENTED_EDGE('',*,*,#212,.F.);
#290=ORIENTED_EDGE('',*,*,#216,.F.);
#291=ORIENTED_EDGE('',*,*,#217,.T.);
#292=ORIENTED_EDGE('',*,*,#230,.T.);
#293=ORIENTED_EDGE('',*,*,#231,.F.);
#294=ORIENTED_EDGE('',*,*,#224,.F.);
#295=ORIENTED_EDGE('',*,*,#222,.T.);
#296=ORIENTED_EDGE('',*,*,#232,.T.);
#297=ORIENTED_EDGE('',*,*,#233,.F.);
#298=ORIENTED_EDGE('',*,*,#234,.F.);
#299=ORIENTED_EDGE('',*,*,#223,.F.);
#300=ORIENTED_EDGE('',*,*,#234,.T.);
#301=ORIENTED_EDGE('',*,*,#235,.F.);
#302=ORIENTED_EDGE('',*,*,#230,.F.);
#303=ORIENTED_EDGE('',*,*,#221,.F.);
#304=ORIENTED_EDGE('',*,*,#228,.T.);
#305=ORIENTED_EDGE('',*,*,#236,.F.);
#306=ORIENTED_EDGE('',*,*,#232,.F.);
#307=ORIENTED_EDGE('',*,*,#237,.T.);
#308=ORIENTED_EDGE('',*,*,#238,.F.);
#309=ORIENTED_EDGE('',*,*,#239,.T.);
#310=ORIENTED_EDGE('',*,*,#240,.F.);
#311=ORIENTED_EDGE('',*,*,#241,.T.);
#312=ORIENTED_EDGE('',*,*,#242,.F.);
#313=ORIENTED_EDGE('',*,*,#243,.T.);
#314=ORIENTED_EDGE('',*,*,#244,.F.);
#315=ORIENTED_EDGE('',*,*,#244,.T.);
#316=ORIENTED_EDGE('',*,*,#245,.T.);
#317=ORIENTED_EDGE('',*,*,#246,.F.);
#318=ORIENTED_EDGE('',*,*,#247,.F.);
#319=ORIENTED_EDGE('',*,*,#242,.T.);
#320=ORIENTED_EDGE('',*,*,#248,.T.);
#321=ORIENTED_EDGE('',*,*,#249,.F.);
#322=ORIENTED_EDGE('',*,*,#250,.F.);
#323=ORIENTED_EDGE('',*,*,#241,.F.);
#324=ORIENTED_EDGE('',*,*,#251,.T.);
#325=ORIENTED_EDGE('',*,*,#252,.F.);
#326=ORIENTED_EDGE('',*,*,#248,.F.);
#327=ORIENTED_EDGE('',*,*,#243,.F.);
#328=ORIENTED_EDGE('',*,*,#250,.T.);
#329=ORIENTED_EDGE('',*,*,#253,.F.);
#330=ORIENTED_EDGE('',*,*,#245,.F.);
#331=ORIENTED_EDGE('',*,*,#237,.F.);
#332=ORIENTED_EDGE('',*,*,#247,.T.);
#333=ORIENTED_EDGE('',*,*,#254,.F.);
#334=ORIENTED_EDGE('',*,*,#255,.F.);
#335=ORIENTED_EDGE('',*,*,#239,.F.);
#336=ORIENTED_EDGE('',*,*,#256,.T.);
#337=ORIENTED_EDGE('',*,*,#257,.F.);
#338=ORIENTED_EDGE('',*,*,#258,.F.);
#339=ORIENTED_EDGE('',*,*,#257,.T.);
#340=ORIENTED_EDGE('',*,*,#259,.T.);
#341=ORIENTED_EDGE('',*,*,#254,.T.);
#342=ORIENTED_EDGE('',*,*,#246,.T.);
#343=ORIENTED_EDGE('',*,*,#253,.T.);
#344=ORIENTED_EDGE('',*,*,#249,.T.);
#345=ORIENTED_EDGE('',*,*,#252,.T.);
#346=ORIENTED_EDGE('',*,*,#260,.T.);
#347=ORIENTED_EDGE('',*,*,#229,.T.);
#348=ORIENTED_EDGE('',*,*,#225,.T.);
#349=ORIENTED_EDGE('',*,*,#231,.T.);
#350=ORIENTED_EDGE('',*,*,#235,.T.);
#351=ORIENTED_EDGE('',*,*,#233,.T.);
#352=ORIENTED_EDGE('',*,*,#236,.T.);
#353=ORIENTED_EDGE('',*,*,#227,.T.);
#354=ORIENTED_EDGE('',*,*,#213,.F.);
#355=ORIENTED_EDGE('',*,*,#238,.T.);
#356=ORIENTED_EDGE('',*,*,#255,.T.);
#357=ORIENTED_EDGE('',*,*,#259,.F.);
#358=ORIENTED_EDGE('',*,*,#256,.F.);
#359=ORIENTED_EDGE('',*,*,#240,.T.);
#360=ORIENTED_EDGE('',*,*,#258,.T.);
#361=ORIENTED_EDGE('',*,*,#260,.F.);
#362=ORIENTED_EDGE('',*,*,#251,.F.);
#363=CYLINDRICAL_SURFACE('',#398,0.5);
#364=ADVANCED_FACE('',(#35),#363,.T.);
#365=ADVANCED_FACE('',(#36),#16,.F.);
#366=ADVANCED_FACE('',(#37),#17,.T.);
#367=ADVANCED_FACE('',(#38),#18,.F.);
#368=ADVANCED_FACE('',(#39),#19,.F.);
#369=ADVANCED_FACE('',(#40),#20,.F.);
#370=ADVANCED_FACE('',(#41),#21,.F.);
#371=ADVANCED_FACE('',(#42),#22,.F.);
#372=ADVANCED_FACE('',(#43),#23,.F.);
#373=ADVANCED_FACE('',(#44),#24,.F.);
#374=ADVANCED_FACE('',(#45),#25,.F.);
#375=ADVANCED_FACE('',(#46),#26,.T.);
#376=ADVANCED_FACE('',(#47),#27,.T.);
#377=ADVANCED_FACE('',(#48),#28,.T.);
#378=ADVANCED_FACE('',(#49),#29,.T.);
#379=ADVANCED_FACE('',(#50),#30,.T.);
#380=ADVANCED_FACE('',(#51),#31,.T.);
#381=ADVANCED_FACE('',(#52,#15),#32,.T.);
#382=ADVANCED_FACE('',(#53),#33,.T.);
#383=ADVANCED_FACE('',(#54),#34,.T.);
#384=CLOSED_SHELL('',(#364,#365,#366,#367,#368,#369,#370,#371,#372,#373,
#374,#375,#376,#377,#378,#379,#380,#381,#382,#383));
#385=DERIVED_UNIT_ELEMENT(#387,1.);
#386=DERIVED_UNIT_ELEMENT(#626,-3.);
#387=(
MASS_UNIT()
NAMED_UNIT(*)
SI_UNIT(.KILO.,.GRAM.)
);
#388=DERIVED_UNIT((#385,#386));
#389=MEASURE_REPRESENTATION_ITEM('density measure',
POSITIVE_RATIO_MEASURE(7850.),#388);
#390=PROPERTY_DEFINITION_REPRESENTATION(#395,#392);
#391=PROPERTY_DEFINITION_REPRESENTATION(#396,#393);
#392=REPRESENTATION('material name',(#394),#623);
#393=REPRESENTATION('density',(#389),#623);
#394=DESCRIPTIVE_REPRESENTATION_ITEM('Steel','Steel');
#395=PROPERTY_DEFINITION('material property','material name',#633);
#396=PROPERTY_DEFINITION('material property','density of part',#633);
#397=AXIS2_PLACEMENT_3D('',#515,#420,#421);
#398=AXIS2_PLACEMENT_3D('',#516,#422,#423);
#399=AXIS2_PLACEMENT_3D('',#519,#424,#425);
#400=AXIS2_PLACEMENT_3D('',#523,#427,#428);
#401=AXIS2_PLACEMENT_3D('',#525,#430,#431);
#402=AXIS2_PLACEMENT_3D('',#531,#435,#436);
#403=AXIS2_PLACEMENT_3D('',#545,#444,#445);
#404=AXIS2_PLACEMENT_3D('',#551,#449,#450);
#405=AXIS2_PLACEMENT_3D('',#555,#453,#454);
#406=AXIS2_PLACEMENT_3D('',#557,#456,#457);
#407=AXIS2_PLACEMENT_3D('',#561,#460,#461);
#408=AXIS2_PLACEMENT_3D('',#567,#465,#466);
#409=AXIS2_PLACEMENT_3D('',#569,#468,#469);
#410=AXIS2_PLACEMENT_3D('',#571,#471,#472);
#411=AXIS2_PLACEMENT_3D('',#588,#481,#482);
#412=AXIS2_PLACEMENT_3D('',#594,#486,#487);
#413=AXIS2_PLACEMENT_3D('',#600,#491,#492);
#414=AXIS2_PLACEMENT_3D('',#604,#495,#496);
#415=AXIS2_PLACEMENT_3D('',#606,#498,#499);
#416=AXIS2_PLACEMENT_3D('',#610,#502,#503);
#417=AXIS2_PLACEMENT_3D('',#616,#507,#508);
#418=AXIS2_PLACEMENT_3D('',#619,#511,#512);
#419=AXIS2_PLACEMENT_3D('',#620,#513,#514);
#420=DIRECTION('axis',(0.,0.,1.));
#421=DIRECTION('refdir',(1.,0.,0.));
#422=DIRECTION('center_axis',(0.,1.,0.));
#423=DIRECTION('ref_axis',(-0.707106781186529,0.,0.707106781186566));
#424=DIRECTION('center_axis',(0.,-0.752848755992549,-0.658193551017079));
#425=DIRECTION('ref_axis',(1.56718129305625E-16,-0.658193551017079,0.752848755992549));
#426=DIRECTION('',(0.,1.,0.));
#427=DIRECTION('center_axis',(0.,0.742533241989521,-0.669809215031066));
#428=DIRECTION('ref_axis',(5.15235938628955E-17,0.669809215031066,0.742533241989521));
#429=DIRECTION('',(0.,-1.,0.));
#430=DIRECTION('center_axis',(0.,0.,-1.));
#431=DIRECTION('ref_axis',(0.,-1.,0.));
#432=DIRECTION('',(-1.,0.,0.));
#433=DIRECTION('',(0.,1.,0.));
#434=DIRECTION('',(1.,0.,0.));
#435=DIRECTION('center_axis',(-1.,0.,0.));
#436=DIRECTION('ref_axis',(0.,0.,1.));
#437=DIRECTION('',(0.,0.707106781186547,-0.707106781186548));
#438=DIRECTION('',(0.,0.,-1.));
#439=DIRECTION('',(0.,-0.669809215031065,-0.74253324198952));
#440=DIRECTION('',(0.,-0.658193551017079,0.752848755992549));
#441=DIRECTION('',(0.,0.,1.));
#442=DIRECTION('',(0.,0.707106781186548,0.707106781186548));
#443=DIRECTION('',(0.,-1.,0.));
#444=DIRECTION('center_axis',(0.,1.,0.));
#445=DIRECTION('ref_axis',(0.,0.,-1.));
#446=DIRECTION('',(1.,0.,0.));
#447=DIRECTION('',(0.,0.,1.));
#448=DIRECTION('',(-1.,0.,0.));
#449=DIRECTION('center_axis',(0.,-0.752848755992549,-0.658193551017079));
#450=DIRECTION('ref_axis',(0.,-0.658193551017079,0.752848755992549));
#451=DIRECTION('',(0.,0.658193551017079,-0.752848755992549));
#452=DIRECTION('',(-1.,0.,0.));
#453=DIRECTION('center_axis',(0.,0.742533241989521,-0.669809215031066));
#454=DIRECTION('ref_axis',(0.,-0.669809215031065,-0.74253324198952));
#455=DIRECTION('',(0.,0.669809215031065,0.74253324198952));
#456=DIRECTION('center_axis',(0.,0.707106781186548,0.707106781186547));
#457=DIRECTION('ref_axis',(0.,0.707106781186547,-0.707106781186548));
#458=DIRECTION('',(-1.,0.,0.));
#459=DIRECTION('',(0.,-0.707106781186547,0.707106781186548));
#460=DIRECTION('center_axis',(0.,-0.707106781186548,0.707106781186548));
#461=DIRECTION('ref_axis',(0.,0.707106781186548,0.707106781186548));
#462=DIRECTION('',(1.,0.,0.));
#463=DIRECTION('',(0.,-0.707106781186548,-0.707106781186548));
#464=DIRECTION('',(1.,0.,0.));
#465=DIRECTION('center_axis',(0.,0.,1.));
#466=DIRECTION('ref_axis',(0.,1.,0.));
#467=DIRECTION('',(0.,-1.,0.));
#468=DIRECTION('center_axis',(0.,-1.,0.));
#469=DIRECTION('ref_axis',(0.,0.,1.));
#470=DIRECTION('',(0.,0.,-1.));
#471=DIRECTION('center_axis',(-1.,0.,0.));
#472=DIRECTION('ref_axis',(0.,0.,1.));
#473=DIRECTION('',(0.,-0.707106781186547,0.707106781186548));
#474=DIRECTION('',(0.,1.,0.));
#475=DIRECTION('',(0.,-0.707106781186548,-0.707106781186548));
#476=DIRECTION('',(0.,0.,1.));
#477=DIRECTION('',(0.,0.658193551017079,-0.752848755992549));
#478=DIRECTION('',(0.,-1.,0.));
#479=DIRECTION('',(0.,0.669809215031065,0.74253324198952));
#480=DIRECTION('',(0.,0.,-1.));
#481=DIRECTION('center_axis',(0.,1.,0.));
#482=DIRECTION('ref_axis',(0.,0.,-1.));
#483=DIRECTION('',(-1.,0.,0.));
#484=DIRECTION('',(0.,0.,-1.));
#485=DIRECTION('',(-1.,0.,0.));
#486=DIRECTION('center_axis',(0.,0.,-1.));
#487=DIRECTION('ref_axis',(0.,-1.,0.));
#488=DIRECTION('',(-1.,0.,0.));
#489=DIRECTION('',(0.,-1.,0.));
#490=DIRECTION('',(-1.,0.,0.));
#491=DIRECTION('center_axis',(0.,-0.752848755992549,-0.658193551017079));
#492=DIRECTION('ref_axis',(0.,-0.658193551017079,0.752848755992549));
#493=DIRECTION('',(-1.,0.,0.));
#494=DIRECTION('',(0.,-0.658193551017079,0.752848755992549));
#495=DIRECTION('center_axis',(0.,0.742533241989521,-0.669809215031066));
#496=DIRECTION('ref_axis',(0.,-0.669809215031065,-0.74253324198952));
#497=DIRECTION('',(0.,-0.669809215031065,-0.74253324198952));
#498=DIRECTION('center_axis',(0.,0.707106781186548,0.707106781186547));
#499=DIRECTION('ref_axis',(0.,0.707106781186547,-0.707106781186548));
#500=DIRECTION('',(0.,0.707106781186547,-0.707106781186548));
#501=DIRECTION('',(-1.,0.,0.));
#502=DIRECTION('center_axis',(0.,-0.707106781186548,0.707106781186548));
#503=DIRECTION('ref_axis',(0.,0.707106781186548,0.707106781186548));
#504=DIRECTION('',(-1.,0.,0.));
#505=DIRECTION('',(0.,0.707106781186547,0.707106781186547));
#506=DIRECTION('',(-1.,0.,0.));
#507=DIRECTION('center_axis',(-1.,0.,0.));
#508=DIRECTION('ref_axis',(0.,0.,1.));
#509=DIRECTION('',(0.,1.,0.));
#510=DIRECTION('',(0.,0.,1.));
#511=DIRECTION('center_axis',(0.,0.,1.));
#512=DIRECTION('ref_axis',(0.,1.,0.));
#513=DIRECTION('center_axis',(0.,-1.,0.));
#514=DIRECTION('ref_axis',(0.,0.,1.));
#515=CARTESIAN_POINT('',(0.,0.,0.));
#516=CARTESIAN_POINT('Origin',(-204.345101780987,26.0321656263076,-24.514635817443));
#517=CARTESIAN_POINT('',(-204.845101780987,5.27530151125199,-24.514635817443));
#518=CARTESIAN_POINT('',(-204.345101780987,4.83816619969175,-24.014635817443));
#519=CARTESIAN_POINT('Origin',(-204.345101780987,5.27530151125199,-24.514635817443));
#520=CARTESIAN_POINT('',(-204.345101780987,29.9867161750218,-24.014635817443));
#521=CARTESIAN_POINT('',(-204.345101780987,26.0321656263076,-24.014635817443));
#522=CARTESIAN_POINT('',(-204.845101780987,29.535686391334,-24.514635817443));
#523=CARTESIAN_POINT('Origin',(-204.345101780987,29.535686391334,-24.514635817443));
#524=CARTESIAN_POINT('',(-204.845101780987,26.0321656263076,-24.514635817443));
#525=CARTESIAN_POINT('Origin',(-84.8451017809866,34.5643312526152,-24.014635817443));
#526=CARTESIAN_POINT('',(-145.845101780987,4.83816619969175,-24.014635817443));
#527=CARTESIAN_POINT('',(-114.845101780987,4.83816619969175,-24.014635817443));
#528=CARTESIAN_POINT('',(-145.845101780987,29.9867161750218,-24.014635817443));
#529=CARTESIAN_POINT('',(-145.845101780987,26.0321656263076,-24.014635817443));
#530=CARTESIAN_POINT('',(-114.845101780987,29.9867161750218,-24.014635817443));
#531=CARTESIAN_POINT('Origin',(-145.845101780987,17.5,-5.25731775970987));
#532=CARTESIAN_POINT('',(-145.845101780987,34.,9.5857864376269));
#533=CARTESIAN_POINT('',(-145.845101780987,29.0857861396037,14.5000002980232));
#534=CARTESIAN_POINT('',(-145.845101780987,31.2322226587409,12.353563778886));
#535=CARTESIAN_POINT('',(-145.845101780987,34.,-19.5656127483187));
#536=CARTESIAN_POINT('',(-145.845101780987,34.,4.87134126915668));
#537=CARTESIAN_POINT('',(-145.845101780987,33.9855725829501,-19.5816066112205));
#538=CARTESIAN_POINT('',(-145.845101780987,1.,-19.6245006599874));
#539=CARTESIAN_POINT('',(-145.845101780987,3.30150647267826,-22.2569881436268));
#540=CARTESIAN_POINT('',(-145.845101780987,1.,9.5857864376269));
#541=CARTESIAN_POINT('',(-145.845101780987,1.,-15.1286586004582));
#542=CARTESIAN_POINT('',(-145.845101780987,5.91421386039632,14.5000002980232));
#543=CARTESIAN_POINT('',(-145.845101780987,1.26777734125908,9.85356377888598));
#544=CARTESIAN_POINT('',(-145.845101780987,8.75,14.5000002980232));
#545=CARTESIAN_POINT('Origin',(-84.8451017809866,34.,15.0000002980232));
#546=CARTESIAN_POINT('',(-204.845101780987,34.,9.5857864376269));
#547=CARTESIAN_POINT('',(-114.845101780987,34.,9.5857864376269));
#548=CARTESIAN_POINT('',(-204.845101780987,34.,-19.5656127483187));
#549=CARTESIAN_POINT('',(-204.845101780987,34.,4.87134126915668));
#550=CARTESIAN_POINT('',(-114.845101780987,34.,-19.5656127483187));
#551=CARTESIAN_POINT('Origin',(-144.845101780987,5.57413284839088,-24.8564422664259));
#552=CARTESIAN_POINT('',(-204.845101780987,1.,-19.6245006599874));
#553=CARTESIAN_POINT('',(-204.845101780987,3.30150647267826,-22.2569881436268));
#554=CARTESIAN_POINT('',(-114.845101780987,1.,-19.6245006599874));
#555=CARTESIAN_POINT('Origin',(-144.845101780987,34.2574667580105,-19.2801917325431));
#556=CARTESIAN_POINT('',(-204.845101780987,33.9855725829501,-19.5816066112205));
#557=CARTESIAN_POINT('Origin',(-144.845101780987,29.2928932188135,14.2928932188135));
#558=CARTESIAN_POINT('',(-204.845101780987,29.0857861396037,14.5000002980232));
#559=CARTESIAN_POINT('',(-114.845101780987,29.0857861396037,14.5000002980232));
#560=CARTESIAN_POINT('',(-204.845101780987,31.2322226587409,12.353563778886));
#561=CARTESIAN_POINT('Origin',(-144.845101780987,0.707106781186548,9.29289321881345));
#562=CARTESIAN_POINT('',(-204.845101780987,1.,9.5857864376269));
#563=CARTESIAN_POINT('',(-114.845101780987,0.999999999999999,9.58578643762691));
#564=CARTESIAN_POINT('',(-204.845101780987,5.91421386039632,14.5000002980232));
#565=CARTESIAN_POINT('',(-204.845101780987,1.26777734125908,9.85356377888599));
#566=CARTESIAN_POINT('',(-114.845101780987,5.91421386039632,14.5000002980232));
#567=CARTESIAN_POINT('Origin',(-84.8451017809866,0.,14.5000002980232));
#568=CARTESIAN_POINT('',(-204.845101780987,8.75,14.5000002980232));
#569=CARTESIAN_POINT('Origin',(-84.8451017809866,1.,-24.9999994412065));
#570=CARTESIAN_POINT('',(-204.845101780987,1.,-15.1286586004582));
#571=CARTESIAN_POINT('Origin',(-144.845101780987,17.5,-5.25731775970987));
#572=CARTESIAN_POINT('',(-144.845101780987,35.,10.));
#573=CARTESIAN_POINT('',(-144.845101780987,30.,15.));
#574=CARTESIAN_POINT('',(-144.845101780987,31.9393294399275,13.0606705600725));
#575=CARTESIAN_POINT('',(-144.845101780987,5.,15.));
#576=CARTESIAN_POINT('',(-144.845101780987,8.75,15.0000002980232));
#577=CARTESIAN_POINT('',(-144.845101780987,0.,10.));
#578=CARTESIAN_POINT('',(-144.845101780987,0.560670560072533,10.5606705600725));
#579=CARTESIAN_POINT('',(-144.845101780987,0.,-20.));
#580=CARTESIAN_POINT('',(-144.845101780987,0.,-15.1286586004582));
#581=CARTESIAN_POINT('',(-144.845101780987,4.82128409239833,-25.514635817443));
#582=CARTESIAN_POINT('',(-144.845101780987,2.5486577166857,-22.9151816946439));
#583=CARTESIAN_POINT('',(-144.845101780987,29.980367876683,-25.514635817443));
#584=CARTESIAN_POINT('',(-144.845101780987,26.0321656263076,-25.514635817443));
#585=CARTESIAN_POINT('',(-144.845101780987,35.,-19.9500009475742));
#586=CARTESIAN_POINT('',(-144.845101780987,34.7281058249397,-20.2514158262516));
#587=CARTESIAN_POINT('',(-144.845101780987,35.,4.87134126915668));
#588=CARTESIAN_POINT('Origin',(-84.8451017809866,35.,15.0000002980232));
#589=CARTESIAN_POINT('',(-204.845101780987,35.,-19.9500009475742));
#590=CARTESIAN_POINT('',(-144.845101780987,35.,-19.9500009475742));
#591=CARTESIAN_POINT('',(-204.845101780987,35.,10.));
#592=CARTESIAN_POINT('',(-204.845101780987,35.,15.0000002980232));
#593=CARTESIAN_POINT('',(-144.845101780987,35.,10.));
#594=CARTESIAN_POINT('Origin',(-84.8451017809866,34.5643312526152,-25.514635817443));
#595=CARTESIAN_POINT('',(-204.845101780987,4.82128409239833,-25.514635817443));
#596=CARTESIAN_POINT('',(-144.845101780987,4.82128409239833,-25.514635817443));
#597=CARTESIAN_POINT('',(-204.845101780987,29.980367876683,-25.514635817443));
#598=CARTESIAN_POINT('',(-204.845101780987,34.5643312526152,-25.514635817443));
#599=CARTESIAN_POINT('',(-144.845101780987,29.980367876683,-25.514635817443));
#600=CARTESIAN_POINT('Origin',(-144.845101780987,4.82128409239833,-25.514635817443));
#601=CARTESIAN_POINT('',(-204.845101780987,0.,-20.));
#602=CARTESIAN_POINT('',(-144.845101780987,0.,-20.));
#603=CARTESIAN_POINT('',(-204.845101780987,0.,-20.));
#604=CARTESIAN_POINT('Origin',(-144.845101780987,35.,-19.9500009475742));
#605=CARTESIAN_POINT('',(-204.845101780987,35.,-19.9500009475742));
#606=CARTESIAN_POINT('Origin',(-144.845101780987,30.,15.));
#607=CARTESIAN_POINT('',(-204.845101780987,30.,15.));
#608=CARTESIAN_POINT('',(-204.845101780987,30.,15.));
#609=CARTESIAN_POINT('',(-144.845101780987,30.,15.));
#610=CARTESIAN_POINT('Origin',(-144.845101780987,0.,10.));
#611=CARTESIAN_POINT('',(-204.845101780987,5.,15.));
#612=CARTESIAN_POINT('',(-144.845101780987,5.,15.));
#613=CARTESIAN_POINT('',(-204.845101780987,0.,10.));
#614=CARTESIAN_POINT('',(-204.845101780987,0.,10.));
#615=CARTESIAN_POINT('',(-144.845101780987,0.,10.));
#616=CARTESIAN_POINT('Origin',(-204.845101780987,17.5,-5.25731775970987));
#617=CARTESIAN_POINT('',(-204.845101780987,0.,15.0000002980232));
#618=CARTESIAN_POINT('',(-204.845101780987,0.,-24.9999994412065));
#619=CARTESIAN_POINT('Origin',(-84.8451017809866,0.,15.0000002980232));
#620=CARTESIAN_POINT('Origin',(-84.8451017809866,0.,-24.9999994412065));
#621=UNCERTAINTY_MEASURE_WITH_UNIT(LENGTH_MEASURE(0.01),#625,
'DISTANCE_ACCURACY_VALUE',
'Maximum model space distance between geometric entities at asserted c
onnectivities');
#622=UNCERTAINTY_MEASURE_WITH_UNIT(LENGTH_MEASURE(0.01),#625,
'DISTANCE_ACCURACY_VALUE',
'Maximum model space distance between geometric entities at asserted c
onnectivities');
#623=(
GEOMETRIC_REPRESENTATION_CONTEXT(3)
GLOBAL_UNCERTAINTY_ASSIGNED_CONTEXT((#621))
GLOBAL_UNIT_ASSIGNED_CONTEXT((#625,#627,#628))
REPRESENTATION_CONTEXT('','3D')
);
#624=(
GEOMETRIC_REPRESENTATION_CONTEXT(3)
GLOBAL_UNCERTAINTY_ASSIGNED_CONTEXT((#622))
GLOBAL_UNIT_ASSIGNED_CONTEXT((#625,#627,#628))
REPRESENTATION_CONTEXT('','3D')
);
#625=(
LENGTH_UNIT()
NAMED_UNIT(*)
SI_UNIT(.MILLI.,.METRE.)
);
#626=(
LENGTH_UNIT()
NAMED_UNIT(*)
SI_UNIT($,.METRE.)
);
#627=(
NAMED_UNIT(*)
PLANE_ANGLE_UNIT()
SI_UNIT($,.RADIAN.)
);
#628=(
NAMED_UNIT(*)
SI_UNIT($,.STERADIAN.)
SOLID_ANGLE_UNIT()
);
#629=SHAPE_DEFINITION_REPRESENTATION(#630,#631);
#630=PRODUCT_DEFINITION_SHAPE('',$,#633);
#631=SHAPE_REPRESENTATION('',(#397),#623);
#632=PRODUCT_DEFINITION_CONTEXT('part definition',#637,'design');
#633=PRODUCT_DEFINITION('2026-04-13-11-41-00-345','obd',#634,#632);
#634=PRODUCT_DEFINITION_FORMATION('',$,#639);
#635=PRODUCT_RELATED_PRODUCT_CATEGORY('obd','obd',(#639));
#636=APPLICATION_PROTOCOL_DEFINITION('international standard',
'automotive_design',2009,#637);
#637=APPLICATION_CONTEXT(
'Core Data for Automotive Mechanical Design Process');
#638=PRODUCT_CONTEXT('part definition',#637,'mechanical');
#639=PRODUCT('2026-04-13-11-41-00-345','obd',$,(#638));
#640=PRESENTATION_STYLE_ASSIGNMENT((#641));
#641=SURFACE_STYLE_USAGE(.BOTH.,#642);
#642=SURFACE_SIDE_STYLE('',(#643));
#643=SURFACE_STYLE_FILL_AREA(#644);
#644=FILL_AREA_STYLE('Steel - Satin',(#645));
#645=FILL_AREA_STYLE_COLOUR('Steel - Satin',#646);
#646=COLOUR_RGB('Steel - Satin',0.627450980392157,0.627450980392157,0.627450980392157);
ENDSEC;
END-ISO-10303-21;
